<svg width="350" height="350" viewBox="0 0 350 350" fill="none" xmlns="http://www.w3.org/2000/svg">
<g clip-path="url(#clip0_7_2)">
<path d="M350 0H0V350H350V0Z" fill="black"/>
<path d="M39 148.121C39 144.477 39.6781 141.277 41.0343 138.522C42.4329 135.767 44.3189 133.648 46.6923 132.165C49.0657 130.681 51.7146 129.94 54.6389 129.94C56.9699 129.94 59.089 130.427 60.9962 131.402C62.9458 132.377 64.4715 133.69 65.5734 135.343V118.878H76.4444V165.922H65.5734V160.836C64.5563 162.531 63.0941 163.888 61.1869 164.905C59.3221 165.922 57.1394 166.43 54.6389 166.43C51.7146 166.43 49.0657 165.689 46.6923 164.205C44.3189 162.68 42.4329 160.539 41.0343 157.785C39.6781 154.987 39 151.766 39 148.121ZM65.5734 148.185C65.5734 145.473 64.8106 143.332 63.2848 141.764C61.8015 140.196 59.979 139.412 57.8176 139.412C55.6561 139.412 53.8125 140.196 52.2867 141.764C50.8034 143.29 50.0617 145.409 50.0617 148.121C50.0617 150.834 50.8034 152.995 52.2867 154.606C53.8125 156.174 55.6561 156.958 57.8176 156.958C59.979 156.958 61.8015 156.174 63.2848 154.606C64.8106 153.038 65.5734 150.897 65.5734 148.185Z" fill="#828282"/>
<path d="M117.748 147.613C117.748 148.63 117.685 149.69 117.558 150.792H92.9549C93.1245 152.995 93.8238 154.691 95.0528 155.877C96.3243 157.022 97.8712 157.594 99.6937 157.594C102.406 157.594 104.292 156.449 105.352 154.161H116.922C116.329 156.492 115.248 158.59 113.68 160.455C112.154 162.319 110.226 163.782 107.895 164.841C105.564 165.901 102.957 166.43 100.075 166.43C96.5998 166.43 93.5059 165.689 90.7935 164.205C88.081 162.722 85.9619 160.603 84.4362 157.848C82.9104 155.093 82.1476 151.872 82.1476 148.185C82.1476 144.498 82.8892 141.277 84.3726 138.522C85.8984 135.767 88.0175 133.648 90.7299 132.165C93.4423 130.681 96.5574 129.94 100.075 129.94C103.508 129.94 106.56 130.66 109.23 132.101C111.9 133.542 113.976 135.598 115.46 138.268C116.985 140.938 117.748 144.053 117.748 147.613ZM106.623 144.752C106.623 142.887 105.987 141.404 104.716 140.302C103.444 139.2 101.855 138.649 99.948 138.649C98.1255 138.649 96.5786 139.179 95.3071 140.238C94.0781 141.298 93.3152 142.803 93.0185 144.752H106.623Z" fill="#828282"/>
<path d="M139.44 155.75L147.132 130.448H158.703L146.115 165.922H132.701L120.114 130.448H131.748L139.44 155.75Z" fill="#828282"/>
<path d="M224.69 121.294L213.056 165.922H199.896L192.776 136.551L185.402 165.922H172.242L160.926 121.294H172.56L178.981 153.779L186.927 121.294H198.879L206.508 153.779L212.992 121.294H224.69Z" fill="#828282"/>
<path d="M235.609 126.761C233.702 126.761 232.134 126.21 230.904 125.108C229.718 123.964 229.124 122.565 229.124 120.912C229.124 119.217 229.718 117.818 230.904 116.716C232.134 115.572 233.702 115 235.609 115C237.474 115 238.999 115.572 240.186 116.716C241.415 117.818 242.03 119.217 242.03 120.912C242.03 122.565 241.415 123.964 240.186 125.108C238.999 126.21 237.474 126.761 235.609 126.761ZM241.013 130.448V165.922H230.142V130.448H241.013Z" fill="#828282"/>
<path d="M268.662 156.704V165.922H263.131C259.189 165.922 256.117 164.968 253.913 163.061C251.709 161.111 250.607 157.954 250.607 153.589V139.476H246.284V130.448H250.607V121.802H261.478V130.448H268.598V139.476H261.478V153.716C261.478 154.775 261.732 155.538 262.241 156.004C262.749 156.471 263.597 156.704 264.784 156.704H268.662Z" fill="#828282"/>
<path d="M296.523 130.067C300.591 130.067 303.855 131.423 306.313 134.135C308.771 136.805 310 140.493 310 145.197V165.922H299.193V146.659C299.193 144.286 298.578 142.442 297.349 141.128C296.12 139.815 294.467 139.158 292.39 139.158C290.314 139.158 288.661 139.815 287.432 141.128C286.203 142.442 285.588 144.286 285.588 146.659V165.922H274.717V118.878H285.588V135.216C286.69 133.648 288.195 132.398 290.102 131.465C292.009 130.533 294.149 130.067 296.523 130.067Z" fill="#828282"/>
<path d="M67.0356 234.792L52.0324 215.085V234.792H41.1615V190.164H52.0324V209.745L66.9085 190.164H79.6866L62.3948 212.033L80.3223 234.792H67.0356Z" fill="white"/>
<path d="M102.208 190.164C106.913 190.164 111.024 191.097 114.541 192.961C118.059 194.826 120.772 197.454 122.679 200.844C124.628 204.193 125.603 208.071 125.603 212.478C125.603 216.844 124.628 220.722 122.679 224.112C120.772 227.503 118.038 230.13 114.478 231.995C110.96 233.86 106.87 234.792 102.208 234.792H85.4886V190.164H102.208ZM101.509 225.384C105.62 225.384 108.82 224.26 111.108 222.014C113.397 219.768 114.541 216.589 114.541 212.478C114.541 208.367 113.397 205.167 111.108 202.879C108.82 200.59 105.62 199.446 101.509 199.446H96.3596V225.384H101.509Z" fill="white"/>
</g>
<defs>
<clipPath id="clip0_7_2">
<rect width="350" height="350" fill="white"/>
</clipPath>
</defs>
</svg>
