<svg width="350" height="350" viewBox="0 0 350 350" fill="none" xmlns="http://www.w3.org/2000/svg">
<g clip-path="url(#clip0_12_29)">
<path d="M350 0H0V350H350V0Z" fill="#FDFDFD"/>
<path d="M39 148.902C39 145.282 39.6781 142.103 41.0343 139.366C42.4329 136.63 44.3189 134.525 46.6923 133.051C49.0657 131.578 51.7146 130.841 54.6389 130.841C56.9699 130.841 59.089 131.325 60.9962 132.293C62.9458 133.262 64.4715 134.567 65.5734 136.209V119.852H76.4444V166.585H65.5734V161.533C64.5563 163.217 63.0941 164.564 61.1869 165.575C59.3221 166.585 57.1394 167.09 54.6389 167.09C51.7146 167.09 49.0657 166.353 46.6923 164.88C44.3189 163.364 42.4329 161.238 41.0343 158.502C39.6781 155.723 39 152.523 39 148.902ZM65.5734 148.966C65.5734 146.271 64.8106 144.145 63.2848 142.587C61.8015 141.029 59.979 140.25 57.8176 140.25C55.6561 140.25 53.8125 141.029 52.2867 142.587C50.8034 144.103 50.0617 146.208 50.0617 148.902C50.0617 151.597 50.8034 153.744 52.2867 155.344C53.8125 156.902 55.6561 157.681 57.8176 157.681C59.979 157.681 61.8015 156.902 63.2848 155.344C64.8106 153.786 65.5734 151.66 65.5734 148.966Z" fill="#A2A2A2"/>
<path d="M117.748 148.397C117.748 149.408 117.685 150.46 117.558 151.555H92.9549C93.1245 153.744 93.8238 155.428 95.0528 156.607C96.3243 157.744 97.8712 158.312 99.6937 158.312C102.406 158.312 104.292 157.175 105.352 154.902H116.922C116.329 157.217 115.248 159.301 113.68 161.154C112.154 163.006 110.226 164.459 107.895 165.511C105.564 166.564 102.957 167.09 100.075 167.09C96.5998 167.09 93.5059 166.353 90.7935 164.88C88.081 163.406 85.9619 161.301 84.4362 158.565C82.9104 155.828 82.1476 152.628 82.1476 148.966C82.1476 145.303 82.8892 142.103 84.3726 139.366C85.8984 136.63 88.0175 134.525 90.7299 133.051C93.4423 131.578 96.5574 130.841 100.075 130.841C103.508 130.841 106.56 131.557 109.23 132.988C111.9 134.419 113.976 136.461 115.46 139.114C116.985 141.766 117.748 144.861 117.748 148.397ZM106.623 145.555C106.623 143.703 105.987 142.229 104.716 141.135C103.444 140.04 101.855 139.493 99.948 139.493C98.1255 139.493 96.5786 140.019 95.3071 141.071C94.0781 142.124 93.3152 143.619 93.0185 145.555H106.623Z" fill="#A2A2A2"/>
<path d="M139.44 156.481L147.132 131.346H158.703L146.115 166.585H132.701L120.114 131.346H131.748L139.44 156.481Z" fill="#A2A2A2"/>
<path d="M224.69 122.252L213.056 166.585H199.896L192.776 137.409L185.402 166.585H172.242L160.926 122.252H172.56L178.981 154.523L186.927 122.252H198.879L206.508 154.523L212.992 122.252H224.69Z" fill="#A2A2A2"/>
<path d="M235.609 127.683C233.702 127.683 232.134 127.136 230.904 126.041C229.718 124.904 229.124 123.515 229.124 121.873C229.124 120.189 229.718 118.8 230.904 117.705C232.134 116.568 233.702 116 235.609 116C237.474 116 238.999 116.568 240.186 117.705C241.415 118.8 242.03 120.189 242.03 121.873C242.03 123.515 241.415 124.904 240.186 126.041C238.999 127.136 237.474 127.683 235.609 127.683ZM241.013 131.346V166.585H230.142V131.346H241.013Z" fill="#A2A2A2"/>
<path d="M268.662 157.428V166.585H263.131C259.189 166.585 256.117 165.638 253.913 163.743C251.709 161.806 250.607 158.67 250.607 154.333V140.314H246.284V131.346H250.607V122.757H261.478V131.346H268.598V140.314H261.478V154.46C261.478 155.512 261.732 156.27 262.241 156.733C262.749 157.196 263.597 157.428 264.784 157.428H268.662Z" fill="#A2A2A2"/>
<path d="M296.523 130.967C300.591 130.967 303.855 132.314 306.313 135.009C308.771 137.661 310 141.324 310 145.997V166.585H299.193V147.45C299.193 145.092 298.578 143.261 297.349 141.956C296.12 140.65 294.467 139.998 292.39 139.998C290.314 139.998 288.661 140.65 287.432 141.956C286.203 143.261 285.588 145.092 285.588 147.45V166.585H274.717V119.852H285.588V136.082C286.69 134.525 288.195 133.283 290.102 132.356C292.009 131.43 294.149 130.967 296.523 130.967Z" fill="#A2A2A2"/>
<path d="M67.0356 235L52.0324 215.423V235H41.1615V190.667H52.0324V210.118L66.9085 190.667H79.6866L62.3948 212.391L80.3223 235H67.0356Z" fill="black"/>
<path d="M102.208 190.667C106.913 190.667 111.024 191.593 114.541 193.446C118.059 195.298 120.772 197.909 122.679 201.277C124.628 204.603 125.603 208.455 125.603 212.834C125.603 217.17 124.628 221.022 122.679 224.39C120.772 227.759 118.038 230.369 114.478 232.221C110.96 234.074 106.87 235 102.208 235H85.4886V190.667H102.208ZM101.509 225.653C105.62 225.653 108.82 224.538 111.108 222.306C113.397 220.075 114.541 216.917 114.541 212.834C114.541 208.75 113.397 205.571 111.108 203.298C108.82 201.024 105.62 199.887 101.509 199.887H96.3596V225.653H101.509Z" fill="black"/>
</g>
<defs>
<clipPath id="clip0_12_29">
<rect width="350" height="350" fill="white"/>
</clipPath>
</defs>
</svg>
